<svg xmlns="http://www.w3.org/2000/svg" width="256" height="256" viewBox="0 0 24 24" fill="none">
  <rect width="24" height="24" rx="6" fill="#7c3aed"/>
  <path d="M6 12c0-3.314 2.239-6 5-6 1.657 0 3.156.94 4 2.355l-1.73 1A3.5 3.5 0 0 0 11 8.5C9.067 8.5 7.5 10.29 7.5 12s1.567 3.5 3.5 3.5c1.36 0 2.548-.77 3.097-1.93l1.73 1C14.156 16.94 12.657 18 11 18c-2.761 0-5-2.686-5-6Z" fill="white"/>
  <text x="12" y="21" text-anchor="middle" font-family="Inter, Arial" font-size="3" fill="#f5f3ff">CS</text>
</svg>
